<svg width="57" height="76" viewBox="0 0 57 76" fill="none"
                                    xmlns="http://www.w3.org/2000/svg">
                                    <g clip-path="url(#clip0_790_3)">
                                        <path
                                            d="M25.9057 39.2335H1.15583C0.851449 39.2335 0.559347 39.1133 0.342945 38.8988C0.126542 38.6844 0.00330849 38.3931 2.01972e-09 38.0881V28.95C-1.79794e-05 28.645 0.12003 28.3524 0.334081 28.1356C0.548131 27.9188 0.838904 27.7953 1.14327 27.792H25.9057C26.21 27.7953 26.5008 27.9188 26.7148 28.1356C26.9289 28.3524 27.0489 28.645 27.0489 28.95V38.1007C27.0506 38.2516 27.0222 38.4013 26.9653 38.541C26.9085 38.6807 26.8243 38.8077 26.7178 38.9144C26.6113 39.0211 26.4846 39.1054 26.3452 39.1624C26.2057 39.2193 26.0563 39.2478 25.9057 39.2461V39.2335Z"
                                            fill="white" />
                                        <path
                                            d="M55.8568 39.2462H31.0944C30.7912 39.2462 30.5004 39.1255 30.286 38.9107C30.0716 38.6959 29.9512 38.4045 29.9512 38.1008V28.95C29.9512 28.6463 30.0716 28.3549 30.286 28.1401C30.5004 27.9253 30.7912 27.8046 31.0944 27.8046H55.8443C55.9955 27.803 56.1455 27.8314 56.2856 27.8882C56.4258 27.945 56.5533 28.0291 56.6608 28.1356C56.7683 28.2422 56.8537 28.369 56.9119 28.5088C56.9701 28.6486 57.0001 28.7986 57.0001 28.95V38.1133C56.9968 38.4161 56.8753 38.7056 56.6616 38.9197C56.4479 39.1338 56.159 39.2555 55.8568 39.2588V39.2462Z"
                                            fill="white" />
                                        <path
                                            d="M25.9061 75.9874H2.29952C1.9963 75.9874 1.70551 75.8667 1.49111 75.6519C1.2767 75.4371 1.15625 75.1457 1.15625 74.8419V43.8655C1.15797 43.5587 1.27977 43.265 1.49546 43.0473C1.70808 42.832 1.99719 42.7098 2.29952 42.7075H25.9186C26.223 42.7108 26.5138 42.8342 26.7278 43.051C26.9419 43.2679 27.0619 43.5605 27.0619 43.8655V74.8419C27.0586 75.1447 26.9371 75.4342 26.7234 75.6483C26.5097 75.8624 26.2208 75.9841 25.9186 75.9874H25.9061Z"
                                            fill="white" />
                                        <path
                                            d="M54.701 75.9999H31.0944C30.7912 75.9999 30.5004 75.8793 30.286 75.6644C30.0716 75.4496 29.9512 75.1583 29.9512 74.8545V43.8654C29.9512 43.5617 30.0716 43.2703 30.286 43.0555C30.5004 42.8407 30.7912 42.72 31.0944 42.72H54.701C55.0042 42.72 55.295 42.8407 55.5094 43.0555C55.7238 43.2703 55.8443 43.5617 55.8443 43.8654V74.8419C55.8426 75.1486 55.7207 75.4424 55.5051 75.6601C55.2924 75.8754 55.0033 75.9976 54.701 75.9999Z"
                                            fill="white" />
                                        <path
                                            d="M28.2039 20.5167C26.7334 18.2385 25.0188 16.1281 23.0906 14.2232C18.4422 9.57863 13.555 6.67105 10.3137 6.67105C9.73399 6.65503 9.15721 6.75849 8.61909 6.97501C8.08098 7.19152 7.59299 7.51649 7.18539 7.92974C6.04212 9.07515 5.125 11.3408 7.29846 15.6707C8.93751 18.6964 11.0259 21.4551 13.4922 23.8522C14.9237 25.2921 16.4653 26.6178 18.103 27.8171H32.3498M19.6859 17.6217C23.656 21.5992 25.3897 25.0228 25.754 26.4326C24.0957 26.0675 20.6659 24.1543 16.9597 20.3782C14.8519 18.3395 13.0644 15.9927 11.6579 13.4177C11.3377 12.8211 11.093 12.1868 10.9293 11.5296C12.5625 11.9324 15.9421 13.8456 19.6859 17.6217Z"
                                            fill="white" />
                                        <path
                                            d="M33.4559 27.792C34.0732 26.8422 34.423 25.7431 34.4685 24.6107C34.5139 23.4783 34.2533 22.3546 33.7141 21.3582C33.175 20.3619 32.3773 19.5299 31.4053 18.9501C30.4333 18.3704 29.3231 18.0643 28.1918 18.0643C27.0606 18.0643 25.9504 18.3704 24.9784 18.9501C24.0064 19.5299 23.2087 20.3619 22.6695 21.3582C22.1304 22.3546 21.8698 23.4783 21.9152 24.6107C21.9607 25.7431 22.3105 26.8422 22.9278 27.792H33.4559Z"
                                            fill="white" />
                                        <path
                                            d="M33.5948 28.2829L48.5829 12.9771L53.181 16.7658L55.857 0L38.9468 4.5313L43.4947 8.53395L31.459 20.5922L33.5948 28.2829Z"
                                            fill="white" />
                                    </g>
                                    <defs>
                                        <clipPath id="clip0_790_3">
                                            <rect width="57" height="76" fill="white" />
                                        </clipPath>
                                    </defs>
                                </svg>